# 3ds Max Wavefront OBJ Exporter v0.97b - (c)2007 guruware
# File Created: 08.03.2019 22:49:42

mtllib cube3.mtl

#
# object Plane001
#

v  -0.5000 -0.5000 0.0000
v   0.0000 -0.5000 0.0000
v   0.0000  0.0000 0.0000
v  -0.5000  0.0000 0.0000
v   0.5000 -0.5000 0.0000
v   0.5000  0.0000 0.0000
v   0.0000  0.5000 0.0000
v  -0.5000  0.5000 0.0000
v   0.5000  0.5000 0.0000
# 9 vertices

vn 0.0000 0.0000 1.0000
# 1 vertex normals

vt 0.0000 0.0000 0.0000
vt 0.5000 0.0000 0.0000
vt 0.5000 0.5000 0.0000
vt 0.0000 0.5000 0.0000
vt 1.0000 0.0000 0.0000
vt 1.0000 0.5000 0.0000
vt 0.5000 1.0000 0.0000
vt 0.0000 1.0000 0.0000
vt 1.0000 1.0000 0.0000
# 9 texture coords

o Plane001
g Plane001
usemtl wire_087225198
s 1
f 1/1/1 2/2/1 3/3/1 
f 3/3/1 4/4/1 1/1/1 
f 2/2/1 5/5/1 6/6/1 
f 6/6/1 3/3/1 2/2/1 
f 4/4/1 3/3/1 7/7/1 
f 7/7/1 8/8/1 4/4/1 
f 3/3/1 6/6/1 9/9/1 
f 9/9/1 7/7/1 3/3/1 
# 8 faces

