# 3ds Max Wavefront OBJ Exporter v0.97b - (c)2007 guruware
# File Created: 07.04.2019 12:35:40

mtllib cubeDiagonal.mtl

#
# object Box002
#

v  -0.7493 -3.0000 -1.8522
v  -1.0445 -3.0000 -2.1474
v  -0.7493 -3.0000 -2.4427
v  -0.4540 -3.0000 -2.1474
v  -0.7493 -2.5902 -1.8522
v  -0.4540 -2.5902 -2.1474
v  -0.7493 -2.5902 -2.4427
v  -1.0445 -2.5902 -2.1474
# 8 vertices

vn 0.0000 -0.5774 0.8165
vn -0.8165 -0.5774 -0.0000
vn 0.0000 -0.5774 -0.8165
vn 0.8165 -0.5774 -0.0000
vn 0.0000 0.5774 0.8165
vn 0.8165 0.5774 -0.0000
vn 0.0000 0.5774 -0.8165
vn -0.8165 0.5774 -0.0000
# 8 vertex normals

vt 1.0000 0.0000 0.0000
vt 1.0000 1.0000 0.0000
vt 0.0000 1.0000 0.0000
vt 0.0000 0.0000 0.0000
# 4 texture coords

o Box002
g Box002
usemtl wire_228184153
s 2
f 1/1/1 2/2/2 3/3/3 4/4/4 
s 4
f 5/4/5 6/1/6 7/2/7 8/3/8 
s 8
f 1/4/1 4/1/4 6/2/6 5/3/5 
s 16
f 4/4/4 3/1/3 7/2/7 6/3/6 
s 32
f 3/4/3 2/1/2 8/2/8 7/3/7 
s 64
f 2/4/2 1/1/1 5/2/5 8/3/8 
# 6 polygons

