# Blender v2.79 (sub 0) OBJ File: 'quarto.blend'
# www.blender.org
mtllib quarto.mtl
o Plane.005
v -1.744279 -1.912092 1.862447
v -1.744279 -1.912092 -2.137553
v -1.744279 2.087908 1.862447
v -1.744279 2.087908 -2.137553
vn 1.0000 0.0000 -0.0000
usemtl None
s off
f 1//1 2//1 4//1 3//1
o Plane.004
v 2.257789 -1.912092 1.862447
v 2.257789 -1.912092 -2.137553
v 2.257790 2.087908 1.862447
v 2.257789 2.087908 -2.137553
vn 1.0000 -0.0000 -0.0000
usemtl None
s off
f 5//2 6//2 8//2 7//2
o Plane.003
v -1.743330 -1.912092 -2.113802
v 2.256670 -1.912092 -2.113802
v -1.743330 2.087908 -2.113802
v 2.256670 2.087908 -2.113802
vn 0.0000 0.0000 1.0000
usemtl None
s off
f 9//3 10//3 12//3 11//3
o Plane.002
v -1.743330 -1.912092 1.885856
v 2.256670 -1.912092 1.885856
v -1.743330 2.087908 1.885856
v 2.256670 2.087908 1.885856
vn 0.0000 -0.0000 1.0000
usemtl None
s off
f 13//4 14//4 16//4 15//4
o Plane.001
v -1.743330 2.090248 1.887707
v 2.256670 2.090248 1.887707
v -1.743330 2.090248 -2.112293
v 2.256670 2.090248 -2.112293
vn 0.0000 1.0000 0.0000
usemtl None
s off
f 17//5 18//5 20//5 19//5
o Plane
v -1.743330 -1.906839 1.887707
v 2.256670 -1.906839 1.887707
v -1.743330 -1.906839 -2.112293
v 2.256670 -1.906839 -2.112293
vn 0.0000 1.0000 0.0000
usemtl None
s off
f 21//6 22//6 24//6 23//6
