# 3ds Max Wavefront OBJ Exporter v0.97b - (c)2007 guruware
# File Created: 08.05.2019 15:12:28

mtllib Room.mtl

#
# object Box001
#

v  -3.0000 -3.0000 3.0000
v  3.0000 -3.0000 3.0000
v  3.0000 -3.0000 -3.0000
v  -3.0000 -3.0000 -3.0000
v  -3.0000 3.0000 3.0000
v  -3.0000 3.0000 -3.0000
v  3.0000 3.0000 -3.0000
v  3.0000 3.0000 3.0000
# 8 vertices

vn 0.5774 0.5774 -0.5774
vn -0.5774 0.5774 -0.5774
vn -0.5774 0.5774 0.5774
vn 0.5774 0.5774 0.5774
vn 0.5774 -0.5774 -0.5774
vn 0.5774 -0.5774 0.5774
vn -0.5774 -0.5774 0.5774
vn -0.5774 -0.5774 -0.5774
# 8 vertex normals

vt 1.0000 0.0000 0.0000
vt 0.0000 0.0000 0.0000
vt 0.0000 1.0000 0.0000
vt 1.0000 1.0000 0.0000
# 4 texture coords

o Box001
g Box001
usemtl wire_057008136
s 2
f 1/1/1 2/2/2 3/3/3 4/4/4 
s 4
f 5/2/5 6/3/6 7/4/7 8/1/8 
s 8
f 1/2/1 5/3/5 8/4/8 2/1/2 
s 16
f 2/2/2 8/3/8 7/4/7 3/1/3 
s 32
f 3/2/3 7/3/7 6/4/6 4/1/4 
s 64
f 4/2/4 6/3/6 5/4/5 1/1/1 
# 6 polygons

